<svg width="48" height="48" viewBox="0 0 48 48" fill="none" xmlns="http://www.w3.org/2000/svg">
<path d="M23.9999 48C37.2548 48 47.9999 37.2548 47.9999 24C47.9999 10.7452 37.2548 0 23.9999 0C10.7451 0 0 10.7452 0 24C0 37.2548 10.7451 48 23.9999 48Z" fill="#D32D2F"/>
<path d="M8.38833 17.2622H0.965335C0.340681 19.4012 0 21.6603 0 24.0009C0 34.5093 6.75665 43.4343 16.1596 46.6844H31.8394C33.0906 46.2519 34.2973 45.7247 35.4453 45.101V22.0257C35.4453 21.0973 34.6929 20.3449 33.7644 20.3449H11.0677L9.86478 18.1386C9.56949 17.5982 9.00352 17.2622 8.38833 17.2622Z" fill="white"/>
<path d="M23.999 47.9999C28.6905 47.9999 33.0641 46.6484 36.7619 44.322V23.3422C36.7619 22.4137 36.0095 21.6613 35.081 21.6613H12.3843L11.1813 19.455C10.887 18.9146 10.321 18.5786 9.70581 18.5786H0.62278C0.220541 20.322 6.25191e-08 22.1344 6.25191e-08 23.9999C-0.000946383 37.2549 10.744 47.9999 23.999 47.9999Z" fill="#F0F0F0"/>
<path d="M16.3777 26.1853H0.103516C0.185856 27.0977 0.314552 27.9958 0.49627 28.875H16.3777C17.1206 28.875 17.7226 28.2731 17.7226 27.5301C17.7226 26.7871 17.1197 26.1853 16.3777 26.1853Z" fill="#D32D2F"/>
<path d="M8.79855 31.0605H1.05762C1.34155 31.9833 1.6832 32.8795 2.07125 33.7503H8.79855C9.54151 33.7503 10.1435 33.1483 10.1435 32.4053C10.1435 31.6633 9.54057 31.0605 8.79855 31.0605Z" fill="#D32D2F"/>
</svg>
