<svg width="32" height="32" viewBox="0 0 32 32" fill="none" xmlns="http://www.w3.org/2000/svg">
<path d="M10.8662 11V21M15.8422 21V11H19.1155C20.9669 11 22.4675 12.5033 22.4675 14.3587C22.4675 16.214 20.9675 17.7167 19.1162 17.7167H15.8429" stroke="#D32D2F" stroke-width="2" stroke-linecap="round" stroke-linejoin="round"/>
<path d="M7.60952 3.96663C13.2028 3.56663 18.7962 3.56663 24.3895 3.96663C26.2322 4.10663 27.8928 5.76729 28.0335 7.60996C28.4326 13.2033 28.4326 18.7966 28.0335 24.39C27.8928 26.2326 26.2322 27.8933 24.3895 28.034C18.7962 28.4331 13.2028 28.4331 7.60952 28.034C5.76685 27.8933 4.10618 26.2326 3.96552 24.39C3.56596 18.7966 3.56618 13.2033 3.96618 7.60996C4.10685 5.76729 5.76752 4.10663 7.61018 3.96596" stroke="#D32D2F" stroke-width="2" stroke-linecap="round" stroke-linejoin="round"/>
</svg>
